<svg version="1.1" xmlns="http://www.w3.org/2000/svg" viewBox="0 0 250 250"><desc>Created with Snap</desc><defs></defs><g transform="matrix(0.0399,0,0,0.0399,11.2674,138.7152)"><g transform="matrix(8.3812,0,0,8.3812,4289.9846,-1181.625)"><g><rect x="53.903" y="43.193" fill="#a3003f" width="76.607" height="6.406" style=""></rect><rect x="53.903" y="117.904" fill="#a3003f" width="86.492" height="6.406" style=""></rect><g><rect x="69.49" y="80.549" fill="#a3003f" width="61.02" height="6.407" style=""></rect><rect x="83.746" y="66.413" fill="#a3003f" width="32.511" height="6.406" style=""></rect><rect x="69.49" y="94.683" fill="#a3003f" width="61.02" height="6.407" style=""></rect></g><g><path fill="#a3003f" d="M130.51,151.957v-6.406c3.31,0,6.42-1.29,8.76-3.628c2.339-2.339,3.627-5.45,3.627-8.759    c0-3.31-1.288-6.418-3.627-8.759c-2.34-2.342-5.45-3.629-8.76-3.629h-3.203V0h3.203c5.019,0,9.738,1.957,13.289,5.507    c3.55,3.545,5.505,8.265,5.505,13.287h-6.407c0-3.31-1.287-6.42-3.625-8.756c-1.567-1.565-3.477-2.661-5.559-3.216V114.64    c3.804,0.647,7.306,2.452,10.088,5.238c3.548,3.548,5.503,8.267,5.503,13.286c0,5.019-1.955,9.74-5.505,13.288    C140.25,150.003,135.53,151.957,130.51,151.957z" style=""></path><rect x="142.896" y="18.793" fill="#a3003f" width="6.407" height="114.371" style=""></rect></g><path fill="#a3003f" d="M41.515,164.301h-6.406V34.384c0-5.02,1.955-9.74,5.504-13.29c3.549-3.549,8.269-5.504,13.29-5.504h76.607   v6.406H53.903c-3.311,0-6.42,1.289-8.76,3.627c-2.338,2.34-3.627,5.45-3.627,8.76V164.301z" style=""></path><rect x="50.7" y="18.793" fill="#a3003f" width="6.406" height="129.917" style=""></rect><path fill="#a3003f" d="M53.896,183.094c-5.013,0-9.73-1.957-13.284-5.508c-3.552-3.554-5.508-8.272-5.508-13.285   c0-2.428,0.461-4.808,1.371-7.074c0.971-2.357,2.358-4.443,4.136-6.223c3.563-3.545,8.279-5.494,13.285-5.494h107.798v6.406H53.896   c-3.3,0-6.412,1.287-8.76,3.623c-1.171,1.17-2.09,2.553-2.727,4.101c-0.585,1.457-0.899,3.076-0.899,4.661   c0,3.303,1.29,6.411,3.633,8.756c2.341,2.341,5.451,3.631,8.753,3.631V183.094z" style=""></path><polygon fill="#a3003f" points="164.896,183.094 71.976,183.094 71.976,176.688 158.49,176.688 158.49,29.795 146.105,29.795    146.105,23.388 164.896,23.388  " style=""></polygon><path fill="#a3003f" d="M50.7,200v-38.903h24.485v38.897l-12.259-4.532L50.7,200z M62.92,188.63l5.859,2.166v-23.292H57.106v23.284   L62.92,188.63z" style=""></path></g><desc>Created with Snap</desc><defs></defs></g><g><g transform="matrix(1,0,0,-1,0,0)"><path d="M605 615L608 353Q608 49 583 -3L510 3Q455 98 325 270Q274 338 223 405Q173 472 131 538Q111 449 111 182Q111 80 107 10Q88 -8 65 -8Q43 -8 34 -4Q25 1 25 11Q25 22 27 44Q30 67 33 120Q37 173 40 232Q48 386 48 497Q48 609 46 681Q68 701 80 710Q92 719 107 709Q122 700 145 668Q169 637 212 575Q359 366 501 183L520 681Q531 701 542 708Q553 716 571 716Q606 716 606 652L605 615ZM694 190Q694 308 796 380Q877 437 991 449Q997 449 1019 449Q1041 449 1078 436Q1160 408 1190 337Q1202 309 1202 289Q1202 270 1201 262Q1201 137 1106 65Q1018 -1 886 -1Q791 -1 742 43Q694 87 694 190ZM763 166Q763 104 796 82Q821 66 880 66Q939 66 984 75Q1029 84 1064 106Q1139 154 1139 255Q1139 315 1107 353Q1072 394 1015 394Q976 387 936 379Q897 371 862 348Q786 299 763 166ZM1254 387Q1252 392 1252 398Q1252 405 1257 416Q1262 427 1271 435Q1281 443 1292 442Q1304 442 1311 428L1479 116Q1487 128 1504 160Q1522 193 1544 234Q1567 275 1591 319Q1616 364 1637 401Q1685 486 1694 486Q1715 486 1724 470Q1734 455 1734 447Q1734 439 1734 436Q1678 314 1630 211Q1583 108 1567 77Q1552 47 1540 29Q1519 -2 1499 -2Q1479 -2 1453 29Q1427 61 1394 114Q1336 210 1254 387ZM1980 70Q2068 70 2245 150Q2256 150 2263 142Q2270 135 2270 125Q2230 57 2117 19Q2004 -19 1906 6Q1795 35 1771 131Q1769 150 1769 182Q1769 214 1785 266Q1802 319 1842 366Q1882 413 1936 440Q1990 467 2051 467Q2109 467 2181 427Q2215 408 2235 384Q2255 360 2255 335Q2255 328 2254 321Q2252 260 2195 244Q2170 237 2137 237L1993 243Q1921 243 1883 212Q1861 195 1852 161Q1877 70 1980 70ZM2158 379Q2136 395 2112 402Q2088 409 2072 409Q2056 409 2020 398Q1984 388 1956 375Q1887 343 1887 308Q1967 301 2007 301Q2118 301 2157 320Q2181 330 2181 345Q2181 363 2158 379ZM2348 388Q2346 442 2344 484Q2342 527 2341 547Q2341 568 2325 648Q2334 660 2342 671Q2351 682 2367 682Q2402 682 2421 387Q2431 216 2431 45Q2431 -1 2367 -1L2359 0Q2359 52 2356 133Q2353 214 2351 274Q2350 334 2348 388ZM2547 -2L2502 0L2502 233Q2507 308 2510 366Q2513 424 2521 466Q2529 508 2547 536Q2565 565 2601 582Q2666 614 2840 614Q2915 614 2967 599Q3019 585 3044 572Q3101 544 3101 494Q3101 444 3072 403Q3044 363 2998 333Q2953 304 2896 285Q2839 266 2782 254Q2680 234 2586 234L2582 10Q2582 -2 2547 -2ZM2585 347Q2585 297 2628 297Q2634 297 2649 297Q2664 298 2701 300Q2739 303 2781 310Q2823 318 2865 330Q2908 342 2942 360Q3019 402 3019 467Q3004 532 2900 550Q2869 556 2844 556Q2820 556 2786 553Q2753 551 2709 538Q2665 525 2635 503Q2605 481 2602 452Q2601 440 2597 424Q2585 373 2585 347ZM3162 388Q3160 442 3158 484Q3156 527 3155 547Q3155 568 3139 648Q3148 660 3156 671Q3165 682 3181 682Q3216 682 3235 387Q3245 216 3245 45Q3245 -1 3181 -1L3173 0Q3173 52 3170 133Q3167 214 3165 274Q3164 334 3162 388ZM3300 133Q3300 149 3297 177Q3295 206 3293 240Q3291 274 3291 309Q3291 344 3297 373Q3310 438 3351 438Q3379 430 3388 418Q3398 406 3398 388Q3398 371 3389 345Q3356 258 3356 188Q3356 165 3359 139Q3375 72 3469 72Q3518 72 3562 89Q3646 120 3676 162Q3685 208 3685 242Q3685 277 3682 304Q3680 331 3676 363Q3673 396 3672 435Q3685 441 3697 441Q3710 441 3723 428Q3737 415 3746 379Q3756 343 3759 294Q3762 246 3762 194Q3763 142 3763 93Q3763 45 3767 10Q3755 -1 3744 -1Q3704 -1 3685 79Q3672 68 3641 52Q3575 16 3485 4Q3468 2 3447 2Q3426 2 3394 10Q3363 18 3335 47Q3307 76 3300 133ZM4167 258Q4277 258 4277 202Q4277 160 4216 104Q4125 21 3971 -29Q3964 -29 3955 -15Q3947 -1 3942 6Q3938 14 3936 16Q4051 54 4125 108Q4175 144 4175 167Q4175 190 4116 190Q4057 190 3943 162Q3891 164 3853 199Q3820 230 3820 261Q3820 293 3838 319Q3856 346 3886 369Q3916 392 3956 411Q4054 458 4159 458Q4190 458 4219 452Q4243 452 4247 431Q4251 410 4251 362Q4192 389 4118 389Q4026 389 3966 352Q3904 316 3902 258Q3902 230 3943 230L4016 238Q4110 258 4167 258Z" fill="#424077" style=""></path></g></g></g></svg>