<svg version="1.1" xmlns="http://www.w3.org/2000/svg" viewBox="0 0 250 250"><desc>Created with Snap</desc><defs></defs><g transform="matrix(0.0393,0,0,0.0393,55.6328,144.2608)"><g transform="matrix(14.4787,0,0,14.4787,-1129.2343,-3386.2342)">
<g id="gSkxd6sknfjg">
	<g>
		<path d="M361.85498,132.95007l-21.40002-73.41016l-73.41003-21.3999l-66.54004-36.5l-0.5-0.28003l-67.04993,36.78003
			l-73.41003,21.3999l-21.3999,73.41016L1.63501,199.49011l-0.27002,0.51001l36.78003,67.03979l21.3999,73.42017l73.41003,21.3999
			l66.53992,36.5l0.51001,0.28003l67.04004-36.78003l73.41003-21.3999l21.40002-73.42017l36.51001-66.53979l0.27002-0.5
			L361.85498,132.95007z M367.20496,147.07019l17.91003,32.65991l-4.81006,16.51001l-13.71997-47.05005L367.20496,147.07019z
			 M43.21484,217.17004l-8.70996,29.88013l-13.70996-47.05005l13.70996-47.05005l8.70996,29.87988l-9.13989,16.66016
			l-0.28003,0.51001L43.21484,217.17004z M36.19495,200.00012l7.85999-14.31006l4.16992,14.31006l-4.17993,14.30981
			L36.19495,200.00012z M309.20496,96.10999l12.0199,6.59009l9.53003,32.67993L309.20496,96.10999z M307.32495,92.67004
			l-7.17004-13.06006l15.67004,4.56006l4.57007,15.67017L307.32495,92.67004z M317.5249,82.4801l-18.80005-5.47998
			l-14.96997-27.29004l42.95996,23.57007l23.58008,42.96997l-27.29004-14.97998L317.5249,82.4801z M303.88501,90.78992
			L264.625,69.25012l32.66992,9.52002L303.88501,90.78992z M203.76489,49.30994l13.16003-3.82983l29.83997,16.36987
			L203.76489,49.30994z M200.00488,48.22009l-14.31995-4.16992l14.31995-7.8501l14.31006,7.8501L200.00488,48.22009z
			 M200.50488,34.07019l-0.5-0.27002l-17.16992,9.40991l-29.89001-8.70996l47.05994-13.71021l47.05005,13.71021l-29.89001,8.70996
			L200.50488,34.07019z M183.07495,45.4801l13.15991,3.82983l-43,12.54004L183.07495,45.4801z M96.11499,90.78992l6.58997-12.01978
			l32.67004-9.52002L96.11499,90.78992z M92.67493,92.67004l-13.06995,7.17017l4.56995-15.67017l15.67004-4.56006L92.67493,92.67004
			z M101.2749,77.00012L82.47485,82.4801l-5.47998,18.79004l-27.28992,14.97998l23.57996-42.96997l42.95996-23.57007
			L101.2749,77.00012z M78.7749,102.70007l12.02002-6.59009L69.25488,135.37L78.7749,102.70007z M45.48486,183.07996
			l16.37012-29.83984l-12.54004,43L45.48486,183.07996z M49.31494,203.76013l12.54004,43l-16.37012-29.84009L49.31494,203.76013z
			 M90.79492,303.89001l-12.02002-6.6001L69.24487,264.62L90.79492,303.89001z M92.67493,307.32019l7.55994,13.77979
			l-15.84985-4.56006l-4.78003-16.38989L92.67493,307.32019z M82.5249,317.68005l0.16003,0.56006l18.96997,5.45996
			l14.58997,26.58984l-42.95996-23.56982l-23.57996-42.96997l27.28992,14.96997L82.5249,317.68005z M96.11499,309.21008
			l41.02002,22.5l-34.05005-9.79004L96.11499,309.21008z M195.85498,350.78992l-12.78003,3.73022l-28.34009-15.56006
			L195.85498,350.78992z M199.63501,351.88l14.48999,4.17017l-14.12012,7.75l-14.31995-7.8501L199.63501,351.88z
			 M199.49487,365.92004l0.51001,0.28003l16.98999-9.32007l30,8.63013l-46.98999,13.69995l-47.05994-13.71997l29.89001-8.70996
			L199.49487,365.92004z M216.74487,354.60999l-13.32996-3.82983l43.34998-12.63013L216.74487,354.60999z M303.88501,309.21008
			l-6.59009,12.01001l-32.66992,9.53003L303.88501,309.21008z M307.32495,307.32019l13.07007-7.17017l-4.57007,15.67017
			l-15.67004,4.56982L307.32495,307.32019z M298.72485,323.00012l18.80005-5.47998l5.47998-18.80005l27.29004-14.96997
			l-23.58008,42.96997l-42.95996,23.56982L298.72485,323.00012z M321.22485,297.28992l-12.0199,6.6001L330.74487,264.62
			L321.22485,297.28992z M338.14502,153.24011l16.36987,29.83984l-3.82996,13.16016L338.14502,153.24011z M350.68494,203.76013
			l3.82996,13.15991l-16.36987,29.84009L350.68494,203.76013z M351.7749,200.00012l4.17004-14.31006l7.85999,14.31006
			l-7.85999,14.30981L351.7749,200.00012z M365.92493,200.50012l0.28003-0.5l-9.42004-17.17017l8.70996-29.87988l13.71008,47.05005
			l-13.71008,47.05005l-8.70996-29.88013L365.92493,200.50012z M365.7749,144.47009l-0.28003,0.94995l-0.91992-3.13013
			L365.7749,144.47009z M364.39502,149.19006l-9.04004,31.03003l-19.93005-36.32007L323.83496,104.13l28.33997,15.55005
			l7.72998,14.08008L364.39502,149.19006z M357.18494,124.43005l-1.56995-2.87012l0.86987,0.49023L357.18494,124.43005z
			 M355.65491,119.19006l-1.93005-1.06006l-23.56995-42.96997l15.07996,8.28003L355.65491,119.19006z M338.76489,61.24011
			l5.63013,19.33984l-16.13013-8.84985l-8.83997-16.13013L338.76489,61.24011z M316.56494,54.76013l8.27002,15.08008
			l-42.96997-23.57007l-1.05005-1.92993L316.56494,54.76013z M277.95496,43.51013l0.47998,0.87988l-2.87-1.56982L277.95496,43.51013
			z M280.31494,47.82019l15.55005,28.33984l-39.77002-11.58984L219.7749,44.65002l31.04004-9.05005l15.41992,4.49023
			L280.31494,47.82019z M255.53491,34.22009l2.17004,1.19995l-3.13-0.91992L255.53491,34.22009z M200.00488,3.76013
			l52.92004,29.02979l-2.10999,0.62012l-68.47998-19.95996L200.00488,3.76013z M179.72485,14.88l16.52002,4.81006
			l-53.94995,15.72998L179.72485,14.88z M122.04492,43.51013l2.39001-0.68994l-2.87,1.56982L122.04492,43.51013z
			 M133.76489,40.09021l15.42004-4.49023l31.03992,9.05005l-36.31995,19.92017l-39.7699,11.58984l15.54993-28.33984
			L133.76489,40.09021z M119.19495,44.34021l-1.05994,1.92993L75.16492,69.84021l8.27002-15.07007L119.19495,44.34021z
			 M61.23486,61.24011l19.34009-5.64014L71.73486,71.7301l-16.12988,8.84985L61.23486,61.24011z M54.76489,83.43005
			l15.08008-8.27002L46.2749,118.13l-1.92993,1.06006L54.76489,83.43005z M43.51489,122.05017l0.87012-0.47998l-1.57007,2.85986
			L43.51489,122.05017z M40.09497,133.76013l7.72998-14.08008L76.16492,104.13l-11.58997,39.77002l-19.92993,36.32007
			l-9.04004-31.03003L40.09497,133.76013z M35.42493,142.28992l-0.92004,3.14014l-0.28003-0.95996L35.42493,142.28992z
			 M32.79492,147.07996l0.62,2.11011l-13.71997,47.05005l-4.80994-16.51001L32.79492,147.07996z M3.76489,200.00012
			l9.69006-17.65991l5.14001,17.65991l-5.14001,17.65991L3.76489,200.00012z M32.79492,252.92004l-17.90991-32.6499
			l4.80994-16.51001l13.71997,47.0498L32.79492,252.92004z M34.22485,255.53015l0.28003-0.95996l0.92004,3.13989L34.22485,255.53015
			z M35.60498,250.80994l9.04004-31.02979l19.92993,36.31006l11.58997,39.76978l-28.33997-15.55005l-7.72998-14.07983
			L35.60498,250.80994z M42.81494,275.57019l1.57007,2.85986l-0.87012-0.47998L42.81494,275.57019z M44.34497,280.80994
			l1.92993,1.05005l23.57007,42.96997l-15.08008-8.27002L44.34497,280.80994z M61.23486,338.76013l-5.62988-19.34009
			l16.12988,8.8501l8.84009,16.12988L61.23486,338.76013z M83.43494,345.2301l-8.27002-15.08008l42.97009,23.57007l1.05994,1.92993
			L83.43494,345.2301z M122.04492,356.4801l-0.47998-0.87012l2.87,1.57007L122.04492,356.4801z M119.68494,352.17004
			l-15.17004-27.6499l41.02002,11.80005l34.68994,19.02979l-31.03992,9.04004l-15.42004-4.48999L119.68494,352.17004z
			 M144.46484,365.77014l-2.16992-1.19019l3.13,0.91016L144.46484,365.77014z M147.07495,367.20007l2.10999-0.60986
			l47.05994,13.70996l-16.52002,4.80981L147.07495,367.20007z M200.00488,396.24011l-17.66992-9.68994l17.66992-5.15015
			l17.66003,5.15015L200.00488,396.24011z M220.2749,385.10999l-16.51001-4.80981l47.02002-13.7002l2.13,0.61011L220.2749,385.10999
			z M255.5249,365.77014l-0.95996-0.28003l3.14001-0.91016L255.5249,365.77014z M277.95496,356.4801l-2.39001,0.69995l2.87-1.57007
			L277.95496,356.4801z M266.23486,359.90002l-15.45996,4.51001l-31.15991-8.96997l36.47998-20.02002l39.77002-11.59009
			l-15.55005,28.34009L266.23486,359.90002z M280.81494,355.65002l1.05005-1.92993l42.96997-23.57007l-8.27002,15.08008
			L280.81494,355.65002z M338.76489,338.76013l-19.33997,5.63989l8.83997-16.12988l16.13013-8.8501L338.76489,338.76013z
			 M345.23486,316.55994l-15.07996,8.27002l23.56995-42.96997l1.93005-1.05005L345.23486,316.55994z M356.48486,277.95007
			l-0.86987,0.47998l1.56995-2.85986L356.48486,277.95007z M359.90491,266.2301l-7.72998,14.07983l-28.33997,15.55005
			l11.58997-39.76978l19.93005-36.31006l9.04004,31.02979L359.90491,266.2301z M364.57495,257.71008l0.91992-3.13989
			l0.28003,0.95996L364.57495,257.71008z M367.20496,252.92004l-0.62-2.11011l13.71997-47.0498l4.81006,16.51001
			L367.20496,252.92004z M386.54492,217.66003l-5.14001-17.65991l5.14001-17.67017l9.68994,17.67017L386.54492,217.66003z" fill="#76528b" style=""></path>
	</g>
</g>


<desc>Created with Snap</desc><defs></defs></g><g><g transform="matrix(0.5,0,0,-0.5,0,0)"><path d="M407 1964Q416 1985 439 1985Q462 1985 474 1971Q487 1957 494 1920Q528 1753 700 1094Q873 435 952 158Q999 424 1112 1011Q1225 1599 1286 1939Q1293 1961 1315 1975Q1338 1989 1357 1989Q1376 1989 1377 1976Q1378 1964 1378 1939Q1251 1326 1152 768Q1053 210 1036 118Q1020 27 1015 16Q1010 6 995 -9Q981 -23 956 -23Q932 -23 904 24Q877 73 840 222Q803 371 666 886Q530 1402 451 1731Q404 1516 285 943Q167 370 82 20Q73 -20 29 -20Q-14 -20 -14 17Q-14 29 55 315Q125 602 262 1273Q399 1944 407 1964ZM1859 1034Q2048 1034 2048 748Q2048 525 1925 269Q1842 97 1725 21Q1665 -18 1601 -18Q1488 -18 1439 72Q1390 162 1390 266Q1390 452 1452 627Q1515 802 1622 918Q1730 1034 1859 1034ZM1591 703Q1483 487 1483 281Q1483 138 1562 89Q1586 74 1617 74Q1681 74 1760 185Q1839 296 1893 458Q1947 621 1947 737Q1947 854 1933 885Q1920 916 1902 928Q1885 940 1844 940Q1804 940 1756 908Q1663 848 1591 703ZM2535 1378Q2820 1356 2820 1028Q2820 701 2595 293Q2521 160 2426 35Q2395 -6 2371 -6Q2320 -6 2314 37Q2278 291 2256 500Q2234 710 2193 1012Q2199 1032 2216 1046Q2234 1061 2249 1061Q2278 1061 2287 1026Q2309 825 2337 607Q2365 389 2394 143Q2543 378 2602 513Q2723 794 2723 1010Q2723 1227 2597 1275Q2561 1289 2531 1293Q2501 1297 2489 1303Q2478 1309 2478 1327Q2478 1371 2535 1378ZM3327 168Q3362 168 3362 131Q3362 88 3257 34Q3152 -20 3082 -20Q3012 -20 2977 3Q2942 26 2920 67Q2877 147 2877 260Q2877 460 2937 637Q2997 814 3097 930Q3197 1047 3313 1047Q3375 1047 3410 995Q3446 944 3446 874Q3446 743 3377 652Q3309 561 3209 503Q3109 445 2979 393L2975 246Q2975 74 3079 74Q3135 74 3196 106Q3258 139 3285 153Q3312 168 3327 168ZM3352 870Q3352 950 3285 950Q3225 950 3144 842Q3063 734 3010 557Q2997 514 2995 492Q3035 514 3077 534Q3119 554 3159 576Q3251 627 3301 695Q3352 764 3352 870ZM3864 125Q3909 125 3909 79Q3909 34 3849 9Q3790 -16 3713 -16Q3637 -16 3601 25Q3565 66 3565 125Q3565 184 3571 233Q3578 283 3594 371Q3610 459 3631 569Q3652 679 3678 805Q3704 931 3731 1062Q3758 1193 3785 1322Q3813 1451 3838 1567Q3863 1684 3884 1781Q3905 1879 3919 1946Q3928 1978 3965 1978Q4008 1978 4008 1931L4008 1905Q3969 1718 3931 1541Q3893 1364 3801 927Q3710 490 3683 336Q3657 182 3657 151Q3657 120 3676 96Q3695 72 3720 72Q3746 72 3767 80Q3788 89 3808 98Q3828 108 3844 116Q3860 125 3864 125ZM4276 809Q4102 865 4102 909Q4102 934 4119 946Q4136 958 4155 958Q4174 958 4192 953Q4210 948 4228 941Q4246 934 4264 925Q4282 917 4297 911L4502 1872Q4411 1844 4368 1767Q4350 1743 4321 1743Q4284 1743 4284 1778Q4284 1785 4289 1800Q4361 1937 4532 1970Q4554 2011 4583 2011Q4613 2011 4618 1980L4626 1980Q4855 1980 4985 1827Q5116 1675 5116 1487Q5116 1171 4955 980Q4781 772 4465 772Q4416 772 4362 786Q4339 671 4289 442Q4240 213 4211 47Q4206 22 4188 6Q4170 -10 4154 -10Q4121 -10 4117 33Q4151 230 4203 470Q4256 711 4276 809ZM4598 1888L4383 881Q4431 868 4528 868Q4626 868 4721 914Q4817 960 4886 1038Q5030 1204 5030 1438Q5030 1620 4914 1754Q4798 1888 4598 1888ZM5495 125Q5540 125 5540 79Q5540 34 5480 9Q5421 -16 5344 -16Q5268 -16 5232 25Q5196 66 5196 125Q5196 184 5202 233Q5209 283 5225 371Q5241 459 5262 569Q5283 679 5309 805Q5335 931 5362 1062Q5389 1193 5416 1322Q5444 1451 5469 1567Q5494 1684 5515 1781Q5536 1879 5550 1946Q5559 1978 5596 1978Q5639 1978 5639 1931L5639 1905Q5600 1718 5562 1541Q5524 1364 5432 927Q5341 490 5314 336Q5288 182 5288 151Q5288 120 5307 96Q5326 72 5351 72Q5377 72 5398 80Q5419 89 5439 98Q5459 108 5475 116Q5491 125 5495 125ZM6237 -49Q6176 -49 6176 115Q6176 221 6196 332Q6217 443 6239 549Q6202 483 6169 413Q6136 344 6111 301Q6086 259 6071 230Q5942 -16 5831 -16Q5721 -16 5721 203Q5721 484 5810 840L5841 964Q5860 1032 5905 1032Q5931 1032 5940 997Q5937 965 5924 938Q5911 911 5905 878Q5817 434 5817 272L5815 176Q5815 94 5842 94Q5920 94 6107 462Q6136 518 6178 603Q6220 688 6244 732Q6268 777 6287 818Q6366 991 6423 991Q6458 991 6458 952Q6458 914 6419 826Q6380 738 6355 646Q6283 389 6266 109L6266 98Q6266 68 6278 53Q6291 39 6297 32Q6303 26 6303 5Q6303 -15 6279 -32Q6256 -49 6237 -49ZM6896 956Q6796 956 6796 840Q6796 763 6832 681Q6868 599 6893 550Q6990 357 6990 254Q6990 152 6928 80Q6866 8 6749 -6L6736 -6Q6623 -6 6572 133Q6570 138 6570 142L6570 152Q6570 173 6583 186Q6596 200 6611 203L6622 203Q6642 203 6654 187Q6667 171 6678 151Q6689 132 6702 116Q6715 100 6747 100Q6815 100 6855 142Q6896 185 6896 237Q6896 289 6881 334Q6856 411 6795 526Q6693 715 6693 820Q6693 925 6746 992Q6799 1059 6896 1059Q6956 1059 6999 1034Q7080 987 7080 928Q7080 870 7031 870Q7013 870 7001 883Q6990 897 6977 913Q6942 956 6896 956Z" fill="#cbce91" style=""></path></g></g></g></svg>